<?xml version="1.0" encoding="UTF-8"?>
<!DOCTYPE svg PUBLIC "-//W3C//DTD SVG 1.1//EN"
    "http://www.w3.org/Graphics/SVG/1.1/DTD/svg11.dtd">
<svg xmlns="http://www.w3.org/2000/svg" xmlns:xlink="http://www.w3.org/1999/xlink" version="1.1" width="1000" height="800" preserveAspectRatio="xMinYMin meet" viewBox="3 11 35 42"><path stroke="red" stroke-width="0.4" fill="none" d="M 5.0,19.6 L 5.5,19.6 " /><path stroke="red" stroke-width="0.4" fill="none" d="M 6.0,19.6 L 6.5,19.6 " /><path stroke="red" stroke-width="0.4" fill="none" d="M 7.0,19.6 L 7.5,19.6 " /><path stroke="red" stroke-width="0.4" fill="none" d="M 8.0,19.6 L 8.5,19.6 " /><path stroke="red" stroke-width="0.4" fill="none" d="M 9.0,19.6 L 9.5,19.6 " /><path stroke="red" stroke-width="0.4" fill="none" d="M 10.0,19.6 L 10.5,19.6 " /><path stroke="red" stroke-width="0.4" fill="none" d="M 5.5,20.0 L 6.0,20.0 " /><path stroke="red" stroke-width="0.4" fill="none" d="M 6.5,20.0 L 7.0,20.0 " /><path stroke="red" stroke-width="0.4" fill="none" d="M 7.5,20.0 L 8.0,20.0 " /><path stroke="red" stroke-width="0.4" fill="none" d="M 8.5,20.0 L 9.0,20.0 " /><path stroke="red" stroke-width="0.4" fill="none" d="M 9.5,20.0 L 10.0,20.0 " /><path stroke="red" stroke-width="0.4" fill="none" d="M 5.0,20.4 L 5.5,20.4 " /><path stroke="red" stroke-width="0.4" fill="none" d="M 6.0,20.4 L 6.5,20.4 " /><path stroke="red" stroke-width="0.4" fill="none" d="M 7.0,20.4 L 7.5,20.4 " /><path stroke="red" stroke-width="0.4" fill="none" d="M 8.0,20.4 L 8.5,20.4 " /><path stroke="red" stroke-width="0.4" fill="none" d="M 9.0,20.4 L 9.5,20.4 " /><path stroke="red" stroke-width="0.4" fill="none" d="M 10.0,20.4 L 10.5,20.4 " /><path stroke="black" stroke-width="0.1" fill="none" d="M 6.0,20.5 L 9.5,20.5 " /><path stroke="black" stroke-width="0.1" fill="none" d="M 4.72,27.32 L 6.36,25.2 " /><path stroke="black" stroke-width="0.1" fill="none" d="M 6.36,25.2 L 8.44,23.68 " /><path stroke="black" stroke-width="0.1" fill="none" d="M 8.44,23.68 L 5.8,19.76 " /><path stroke="black" stroke-width="0.1" fill="none" d="M 5.8,19.76 L 7.0,15.0 " /><path stroke="black" stroke-width="0.1" fill="none" d="M 7.0,15.0 L 10.08,11.16 " /><path stroke="black" stroke-width="0.1" fill="none" d="M 10.08,11.16 L 16.88,11.08 " /><path stroke="black" stroke-width="0.1" fill="none" d="M 16.88,11.08 L 23.12,11.96 " /><path stroke="black" stroke-width="0.1" fill="none" d="M 23.12,11.96 L 26.44,14.28 " /><path stroke="black" stroke-width="0.1" fill="none" d="M 26.44,14.28 L 30.44,14.44 " /><path stroke="black" stroke-width="0.1" fill="none" d="M 30.44,14.44 L 33.24,17.28 " /><path stroke="black" stroke-width="0.1" fill="none" d="M 33.24,17.28 L 34.28,19.08 " /><path stroke="black" stroke-width="0.1" fill="none" d="M 34.28,19.08 L 34.2,25.64 " /><path stroke="black" stroke-width="0.1" fill="none" d="M 34.2,25.64 L 32.8,28.64 " /><path stroke="black" stroke-width="0.1" fill="none" d="M 32.8,28.64 L 34.08,30.64 " /><path stroke="black" stroke-width="0.1" fill="none" d="M 34.08,30.64 L 33.92,35.56 " /><path stroke="black" stroke-width="0.1" fill="none" d="M 33.92,35.56 L 30.64,38.64 " /><path stroke="black" stroke-width="0.1" fill="none" d="M 30.64,38.64 L 24.48,39.44 " /><path stroke="black" stroke-width="0.1" fill="none" d="M 24.48,39.44 L 19.48,37.64 " /><path stroke="black" stroke-width="0.1" fill="none" d="M 19.48,37.64 L 16.4,40.0 " /><path stroke="black" stroke-width="0.1" fill="none" d="M 16.4,40.0 L 11.52,41.52 " /><path stroke="black" stroke-width="0.1" fill="none" d="M 11.52,41.52 L 7.2,40.08 " /><path stroke="black" stroke-width="0.1" fill="none" d="M 7.2,40.08 L 4.68,37.88 " /><path stroke="black" stroke-width="0.1" fill="none" d="M 4.68,37.88 L 3.0,32.52 " /><path stroke="black" stroke-width="0.1" fill="none" d="M 3.0,32.52 L 4.64,28.52 " /><path stroke="black" stroke-width="0.1" fill="none" d="M 4.64,28.52 L 4.72,27.32 " /><path stroke="black" stroke-width="0.1" fill="none" d="M 15.64,13.8 L 10.36,14.48 " /><path stroke="black" stroke-width="0.1" fill="none" d="M 10.36,14.48 L 8.28,18.44 " /><path stroke="black" stroke-width="0.1" fill="none" d="M 8.28,18.44 L 10.04,21.76 " /><path stroke="black" stroke-width="0.1" fill="none" d="M 10.04,21.76 L 11.92,26.64 " /><path stroke="black" stroke-width="0.1" fill="none" d="M 11.92,26.64 L 7.0,27.2 " /><path stroke="black" stroke-width="0.1" fill="none" d="M 7.0,27.2 L 6.16,31.64 " /><path stroke="black" stroke-width="0.1" fill="none" d="M 6.16,31.64 L 8.0,38.08 " /><path stroke="black" stroke-width="0.1" fill="none" d="M 8.0,38.08 L 12.36,39.04 " /><path stroke="black" stroke-width="0.1" fill="none" d="M 12.36,39.04 L 18.72,34.72 " /><path stroke="black" stroke-width="0.1" fill="none" d="M 18.72,34.72 L 24.56,36.88 " /><path stroke="black" stroke-width="0.1" fill="none" d="M 24.56,36.88 L 31.76,32.8 " /><path stroke="black" stroke-width="0.1" fill="none" d="M 31.76,32.8 L 29.72,27.12 " /><path stroke="black" stroke-width="0.1" fill="none" d="M 29.72,27.12 L 32.88,23.08 " /><path stroke="black" stroke-width="0.1" fill="none" d="M 32.88,23.08 L 30.04,17.48 " /><path stroke="black" stroke-width="0.1" fill="none" d="M 30.04,17.48 L 23.92,17.08 " /><path stroke="black" stroke-width="0.1" fill="none" d="M 23.92,17.08 L 21.04,13.92 " /><path stroke="black" stroke-width="0.1" fill="none" d="M 21.04,13.92 L 15.64,13.8 " /><path stroke="green" stroke-width="0.05" fill="none" d="M 6.0,20.0 L 8.0,22.0 " /><path stroke="green" stroke-width="0.05" fill="none" d="M 6.0,22.0 L 8.0,20.0 " /><path stroke="green" stroke-width="0.05" fill="none" d="M 7.0,20.0 L 7.0,22.0 " /><path stroke="green" stroke-width="0.05" fill="none" d="M 6.0,21.0 L 8.0,21.0 " /></svg>